<svg width="10" height="16" viewBox="4 6 16 16" fill="none" xmlns="http://www.w3.org/2000/svg">
<path d="M7.49999 4.85016L6.13332 3.46683C6.74165 1.92516 8.24165 0.833496 9.99999 0.833496C12.3 0.833496 14.1667 2.70016 14.1667 5.00016V6.66683H15C15.925 6.66683 16.6667 7.41683 16.6667 8.3335V14.0002L15 12.3335V8.3335H11L9.33332 6.66683H12.5V5.00016C12.5 3.61683 11.3833 2.50016 9.99999 2.50016C8.67499 2.50016 7.59165 3.54183 7.49999 4.85016ZM18.425 17.8835L17.3667 18.9418L16.2167 17.7918C15.9167 18.1252 15.4833 18.3335 15 18.3335H4.99999C4.07499 18.3335 3.33332 17.5835 3.33332 16.6668V8.3335C3.33332 7.4085 4.07499 6.66683 4.99999 6.66683H5.09165L0.924988 2.50016L1.99165 1.44183L18.425 17.8835ZM15 16.5752L11.5417 13.1168C11.3 13.7502 10.7 14.1668 9.99999 14.1668C9.07499 14.1668 8.33332 13.4168 8.33332 12.5002C8.33332 11.7918 8.74999 11.2002 9.38332 10.9585L6.75832 8.3335H4.99999V16.6668H15V16.5752Z" fill="white"/>
</svg>
