<svg width="153" height="145" viewBox="0 0 153 145" fill="none" xmlns="http://www.w3.org/2000/svg">
<path d="M62.5938 142.931C76.7596 137.361 73.6558 122.001 66.4933 112.292C59.4104 102.344 49.6217 95.4997 39.7533 88.8943C32.75 84.4376 26.3037 78.8668 21.1308 72.5001C18.9025 69.8739 14.3663 65.0193 18.9821 64.0643C23.6775 63.1093 31.795 67.7251 35.9333 69.476C43.1754 72.5001 50.3379 76.0018 57.0229 80.1401L65.0608 66.611C52.6458 58.4139 36.7292 51.1718 21.9267 49.023C13.4908 47.7497 4.5775 49.5005 1.7125 58.6526C-0.834168 66.5314 3.22458 74.4897 7.84042 80.6972C18.7433 95.261 35.6946 102.264 48.3483 114.838C51.0542 117.465 54.3171 120.568 55.9087 124.229C57.58 127.731 57.1821 127.97 53.4417 127.97C43.5733 127.97 31.2379 120.25 23.2 115.157L15.1621 128.686C27.3383 136.167 47.7117 147.866 62.5938 142.931ZM150.852 18.7814C152.602 17.0305 152.602 14.1655 150.852 12.4943L140.506 2.14846C138.835 0.477207 135.97 0.477207 134.298 2.14846L126.181 10.266L142.734 26.8193M72.5417 63.9051V80.4585H89.095L138.039 31.5147L121.485 14.9614L72.5417 63.9051Z" fill="#BCC2F9"/>
</svg>
