<svg width="12" height="18" viewBox="-4 5 17 17" fill="none" xmlns="http://www.w3.org/2000/svg">
<path d="M7.00001 14.1668C6.07501 14.1668 5.33334 13.4168 5.33334 12.5002C5.33334 11.5752 6.07501 10.8335 7.00001 10.8335C7.44204 10.8335 7.86596 11.0091 8.17852 11.3217C8.49108 11.6342 8.66668 12.0581 8.66668 12.5002C8.66668 12.9422 8.49108 13.3661 8.17852 13.6787C7.86596 13.9912 7.44204 14.1668 7.00001 14.1668ZM12 16.6668V8.3335H2.00001V16.6668H12ZM12 6.66683C12.442 6.66683 12.866 6.84242 13.1785 7.15498C13.4911 7.46755 13.6667 7.89147 13.6667 8.3335V16.6668C13.6667 17.1089 13.4911 17.5328 13.1785 17.8453C12.866 18.1579 12.442 18.3335 12 18.3335H2.00001C1.07501 18.3335 0.333344 17.5835 0.333344 16.6668V8.3335C0.333344 7.4085 1.07501 6.66683 2.00001 6.66683H2.83334V5.00016C2.83334 3.89509 3.27233 2.83529 4.05373 2.05388C4.83513 1.27248 5.89494 0.833496 7.00001 0.833496C7.54718 0.833496 8.089 0.94127 8.59452 1.15066C9.10005 1.36006 9.55938 1.66697 9.94629 2.05388C10.3332 2.4408 10.6401 2.90013 10.8495 3.40565C11.0589 3.91117 11.1667 4.45299 11.1667 5.00016V6.66683H12ZM7.00001 2.50016C6.33697 2.50016 5.70108 2.76355 5.23224 3.2324C4.7634 3.70124 4.50001 4.33712 4.50001 5.00016V6.66683H9.50001V5.00016C9.50001 4.33712 9.23662 3.70124 8.76778 3.2324C8.29894 2.76355 7.66305 2.50016 7.00001 2.50016Z" fill="white"/>
</svg>
